<?xml version="1.0" encoding="utf-8"?>
<!-- Generator: Adobe Adobe Illustrator 24.2.0, SVG Export Plug-In . SVG Version: 6.00 Build 0)  -->
<svg version="1.1" id="Layer_1" xmlns="http://www.w3.org/2000/svg" xmlns:xlink="http://www.w3.org/1999/xlink" x="0px" y="0px"
	 width="252px" height="152px" viewBox="0 0 252 152" style="enable-background:new 0 0 252 152;" xml:space="preserve">
<style type="text/css">
	.st0{fill:#636363;}
	.st1{fill:#A4C3D5;}
	.st2{fill:#6F5038;}
	.st3{fill:#658FAB;}
	.st4{fill:#FFFFFF;stroke:#000000;stroke-miterlimit:10;}
</style>
<g>
	<g>
		<g>
			<path class="st0" d="M191.18,52.97c-3.06-8.6-5.4-20.26-11.64-26.95c-0.4-0.43,0.36-1.18-0.08-1.56
				C131.53-17,36.05,9.07,39.79,72.82l154.49,0C193.18,65.11,193.39,59.16,191.18,52.97z"/>
			<path class="st0" d="M251.88,74.48L95.01,74.5c0.02,1.19-2.54,2.33-2.48,3.49c0.6,11.78,2.02,22.11,6.01,31.18
				C122.59,163.86,256.53,160.98,251.88,74.48z"/>
		</g>
	</g>
</g>
<g>
	<path class="st1" d="M78.96,72.87l-1.23-10.52H67.51l-1.05,10.52h-9.23l4.55-46.4c0.19-1.97,1.05-3.02,2.65-3.02h17.05
		c1.54,0,2.22,1.17,2.4,3.02l4.37,46.4H78.96z M75.33,38.59c-0.06-0.68-0.31-0.98-0.8-0.98h-4c-0.43,0-0.68,0.31-0.74,0.98
		l-1.91,18.03c0,0.37,0.31,0.55,0.68,0.55h8.06c0.43,0,0.62-0.25,0.62-0.55L75.33,38.59z"/>
	<path class="st1" d="M121.3,72.87V48.74h-0.25c-0.37,0-0.62,0.12-0.74,0.62l-5.54,23.01c-0.06,0.31-0.37,0.49-0.74,0.49h-5.91
		c-0.37,0-0.68-0.18-0.74-0.49l-5.54-23.01c-0.12-0.49-0.37-0.62-0.74-0.62h-0.25v24.12h-8.74V23.45h6.71
		c2.46,0,4.06,1.17,4.68,3.82l7.2,31.57c0.06,0.18,0.18,0.31,0.37,0.31s0.31-0.12,0.37-0.31l7.2-31.57
		c0.62-2.65,2.22-3.82,4.68-3.82h8.02v49.41H121.3z"/>
	<path class="st1" d="M156.56,72.87l-2.1-10.52h-10.22l-1.91,10.52h-8.36l4.55-46.4c0.19-1.97,1.05-3.02,2.65-3.02h17.05
		c1.54,0,2.22,1.17,2.4,3.02l4.37,46.4H156.56z M152.06,38.59c-0.06-0.68-0.31-0.98-0.8-0.98h-4c-0.43,0-0.68,0.31-0.74,0.98
		l-1.91,18.03c0,0.37,0.31,0.55,0.68,0.55h8.06c0.43,0,0.62-0.25,0.62-0.55L152.06,38.59z"/>
	<path class="st1" d="M192.92,72.87c-2.15,0-2.89-0.55-3.69-2.34l-9.48-21.17c-0.25-0.49-0.62-0.74-1.05-0.74h-0.74v24.25h-9.11
		V23.45h7.26c1.37,0,2.95,0.3,3.67,1.4c0.44,0.68,1.24,1.73,1.75,2.52l0,0c6.05,8.63,9.57,18.78,10.15,29.31l0.19,3.44
		c0.06,0.25-0.98,0.37-0.74,0.37h0.12V23.45h10.15v49.41H192.92z"/>
</g>
<g>
	<path class="st1" d="M109.42,123.92l-1.23-10.52H97.98l-1.05,10.52H87.7l4.55-46.4c0.19-1.97,1.05-3.02,2.65-3.02h17.05
		c1.54,0,2.22,1.17,2.4,3.02l4.37,46.4H109.42z M105.79,89.64c-0.06-0.68-0.31-0.98-0.8-0.98h-4c-0.43,0-0.68,0.31-0.74,0.98
		l-1.91,18.03c0,0.37,0.31,0.55,0.68,0.55h8.06c0.43,0,0.62-0.25,0.62-0.55L105.79,89.64z"/>
	<path class="st1" d="M127.52,123.92c-3.75,0-6.28-1.45-6.28-5.26V74.5h10.09v41.84c0,1.78,0.74,2.52,2.46,2.52h8.62V74.5h8.98
		v49.41H127.52z"/>
	<path class="st1" d="M156.99,123.92V74.5h21.72c5.78,0,7.08,1.23,7.08,8.18v36.18c0,3.82-1.29,5.05-5.11,5.05H156.99z M177.3,92.47
		c0-2.52-0.74-3.2-2.89-3.2h-8.86v29.6h9.29c1.72,0,2.46-0.74,2.46-2.52V92.47z"/>
	<path class="st1" d="M191.33,123.92V74.5h10.09v49.41H191.33z"/>
	<path class="st1" d="M211.76,123.92c-3.75,0-5.05-1.23-5.05-5.05V82.69c0-6.95,1.29-8.18,7.01-8.18h14.65
		c5.78,0,7.08,1.23,7.08,8.18v36.18c0,3.82-1.29,5.05-5.05,5.05H211.76z M227.02,92.47c0-2.52-0.8-3.2-2.95-3.2h-6.03
		c-2.15,0-2.83,0.68-2.83,3.2v23.88c0,1.78,0.68,2.52,2.46,2.52h6.83c1.72,0,2.52-0.74,2.52-2.52V92.47z"/>
</g>
</svg>
